<mxfile host="app.diagrams.net" modified="2023-06-25T15:04:51.938Z" agent="Mozilla/5.0 (Windows NT 10.0; Win64; x64) AppleWebKit/537.36 (KHTML, like Gecko) Chrome/114.0.0.0 Safari/537.36 Edg/114.0.1823.58" etag="JKjME0HU4tSZn7LWILQK" version="21.5.0" type="github">
  <diagram name="Page-1" id="e3a06f82-3646-2815-327d-82caf3d4e204">
    <mxGraphModel dx="3480.5" dy="970" grid="1" gridSize="10" guides="1" tooltips="1" connect="1" arrows="1" fold="1" page="1" pageScale="1.5" pageWidth="1169" pageHeight="826" background="none" math="0" shadow="0">
      <root>
        <mxCell id="0" style=";html=1;" />
        <mxCell id="1" style=";html=1;" parent="0" />
        <mxCell id="WmShxaBknE1woGPF2N7F-15" value="" style="shape=link;html=1;rounded=0;fontSize=24;exitX=0.481;exitY=1.008;exitDx=0;exitDy=0;exitPerimeter=0;entryX=0.435;entryY=-0.01;entryDx=0;entryDy=0;entryPerimeter=0;labelBackgroundColor=none;" parent="1" source="WmShxaBknE1woGPF2N7F-4" target="WmShxaBknE1woGPF2N7F-2" edge="1">
          <mxGeometry width="100" relative="1" as="geometry">
            <mxPoint x="1245" y="470" as="sourcePoint" />
            <mxPoint x="1245" y="665" as="targetPoint" />
          </mxGeometry>
        </mxCell>
        <mxCell id="WmShxaBknE1woGPF2N7F-4" value="" style="rounded=1;arcSize=10;dashed=0;fillColor=none;gradientColor=none;strokeWidth=2;fontSize=24;labelBackgroundColor=none;" parent="1" vertex="1">
          <mxGeometry x="1045" y="260" width="410" height="200" as="geometry" />
        </mxCell>
        <mxCell id="WmShxaBknE1woGPF2N7F-5" value="Workstation Segment" style="dashed=0;html=1;shape=mxgraph.aws3.instance;fillColor=#F58536;gradientColor=none;dashed=0;fontSize=24;labelBackgroundColor=none;" parent="1" vertex="1">
          <mxGeometry x="1075" y="240" width="270" height="41" as="geometry" />
        </mxCell>
        <mxCell id="WmShxaBknE1woGPF2N7F-2" value="" style="rounded=1;arcSize=10;dashed=0;fillColor=none;gradientColor=none;strokeWidth=2;fontSize=24;labelBackgroundColor=none;" parent="1" vertex="1">
          <mxGeometry x="1000" y="660" width="560" height="200" as="geometry" />
        </mxCell>
        <mxCell id="RgH2JHaKkqkQcPpsvsZi-19" value="" style="shape=link;html=1;rounded=0;exitX=0.5;exitY=1;exitDx=0;exitDy=0;fontSize=24;labelBackgroundColor=none;" parent="1" source="RgH2JHaKkqkQcPpsvsZi-6" edge="1">
          <mxGeometry width="100" relative="1" as="geometry">
            <mxPoint x="900" y="650" as="sourcePoint" />
            <mxPoint x="800" y="660" as="targetPoint" />
          </mxGeometry>
        </mxCell>
        <mxCell id="RgH2JHaKkqkQcPpsvsZi-21" value="" style="shape=link;html=1;rounded=0;exitX=0.5;exitY=1;exitDx=0;exitDy=0;exitPerimeter=0;fontSize=24;labelBackgroundColor=none;" parent="1" source="RgH2JHaKkqkQcPpsvsZi-8" target="RgH2JHaKkqkQcPpsvsZi-5" edge="1">
          <mxGeometry width="100" relative="1" as="geometry">
            <mxPoint x="900" y="650" as="sourcePoint" />
            <mxPoint x="620" y="560" as="targetPoint" />
          </mxGeometry>
        </mxCell>
        <mxCell id="RgH2JHaKkqkQcPpsvsZi-16" value="" style="endArrow=none;dashed=1;html=1;dashPattern=1 3;strokeWidth=2;rounded=0;fontSize=24;fontColor=default;labelBackgroundColor=none;" parent="1" edge="1">
          <mxGeometry width="50" height="50" relative="1" as="geometry">
            <mxPoint x="937" y="280" as="sourcePoint" />
            <mxPoint x="937" y="830" as="targetPoint" />
          </mxGeometry>
        </mxCell>
        <mxCell id="RgH2JHaKkqkQcPpsvsZi-17" value="" style="shape=link;html=1;rounded=0;exitX=1;exitY=0.5;exitDx=0;exitDy=0;entryX=0;entryY=0.5;entryDx=0;entryDy=0;fontSize=24;labelBackgroundColor=none;" parent="1" source="RgH2JHaKkqkQcPpsvsZi-2" target="RgH2JHaKkqkQcPpsvsZi-18" edge="1">
          <mxGeometry width="100" relative="1" as="geometry">
            <mxPoint x="900" y="650" as="sourcePoint" />
            <mxPoint x="1000" y="650" as="targetPoint" />
          </mxGeometry>
        </mxCell>
        <mxCell id="6a7d8f32e03d9370-62" value="Networking" style="text;strokeColor=none;fillColor=none;html=1;fontSize=24;fontStyle=1;verticalAlign=middle;align=center;fontColor=default;labelBackgroundColor=none;" parent="1" vertex="1">
          <mxGeometry x="499" y="30" width="861" height="40" as="geometry" />
        </mxCell>
        <mxCell id="RgH2JHaKkqkQcPpsvsZi-2" value="" style="image;aspect=fixed;perimeter=ellipsePerimeter;html=1;align=center;shadow=0;dashed=0;spacingTop=3;image=img/lib/active_directory/internet_cloud.svg;fontSize=24;fontColor=default;labelBackgroundColor=none;" parent="1" vertex="1">
          <mxGeometry x="110" y="490.5" width="252.38" height="159" as="geometry" />
        </mxCell>
        <mxCell id="RgH2JHaKkqkQcPpsvsZi-4" value="" style="endArrow=none;dashed=1;html=1;dashPattern=1 3;strokeWidth=2;rounded=0;fontSize=24;fontColor=default;labelBackgroundColor=none;" parent="1" edge="1">
          <mxGeometry width="50" height="50" relative="1" as="geometry">
            <mxPoint x="460" y="280" as="sourcePoint" />
            <mxPoint x="460" y="830" as="targetPoint" />
          </mxGeometry>
        </mxCell>
        <mxCell id="RgH2JHaKkqkQcPpsvsZi-3" value="" style="image;html=1;image=img/lib/clip_art/networking/Firewall_128x128.png;fontSize=24;fontColor=default;labelBackgroundColor=none;" parent="1" vertex="1">
          <mxGeometry x="401.5" y="500" width="135" height="100" as="geometry" />
        </mxCell>
        <mxCell id="RgH2JHaKkqkQcPpsvsZi-5" value="Web Server" style="image;aspect=fixed;perimeter=ellipsePerimeter;html=1;align=center;shadow=0;dashed=0;spacingTop=3;image=img/lib/active_directory/web_server.svg;fontSize=24;fontColor=default;labelBackgroundColor=default;" parent="1" vertex="1">
          <mxGeometry x="590" y="590" width="96" height="100" as="geometry" />
        </mxCell>
        <mxCell id="RgH2JHaKkqkQcPpsvsZi-6" value="Application &lt;br style=&quot;font-size: 24px;&quot;&gt;Server&lt;br&gt;192.168.100.50" style="image;html=1;image=img/lib/clip_art/computers/Server_Rack_Empty_128x128.png;fontSize=24;fontColor=default;labelBackgroundColor=default;" parent="1" vertex="1">
          <mxGeometry x="730" y="330" width="140" height="100" as="geometry" />
        </mxCell>
        <mxCell id="RgH2JHaKkqkQcPpsvsZi-7" value="Mail Server" style="fontColor=default;verticalAlign=top;verticalLabelPosition=bottom;labelPosition=center;align=center;html=1;outlineConnect=0;fillColor=#CCCCCC;strokeColor=#6881B3;gradientColor=none;gradientDirection=north;strokeWidth=2;shape=mxgraph.networks.mail_server;fontSize=24;labelBackgroundColor=default;" parent="1" vertex="1">
          <mxGeometry x="747.5" y="665" width="105" height="100" as="geometry" />
        </mxCell>
        <mxCell id="RgH2JHaKkqkQcPpsvsZi-8" value="&lt;font style=&quot;font-size: 24px;&quot;&gt;External &lt;br style=&quot;font-size: 24px;&quot;&gt;Domain Controller&lt;/font&gt;" style="sketch=0;aspect=fixed;pointerEvents=1;shadow=0;dashed=0;html=1;strokeColor=none;labelPosition=center;verticalLabelPosition=bottom;verticalAlign=top;align=center;fillColor=#00188D;shape=mxgraph.mscae.enterprise.domain_controller;fontSize=24;fontColor=default;labelBackgroundColor=default;" parent="1" vertex="1">
          <mxGeometry x="585" y="330" width="72" height="100" as="geometry" />
        </mxCell>
        <mxCell id="RgH2JHaKkqkQcPpsvsZi-9" value="" style="image;html=1;image=img/lib/clip_art/networking/Firewall_128x128.png;fontSize=24;fontColor=default;labelBackgroundColor=none;" parent="1" vertex="1">
          <mxGeometry x="879" y="500" width="135" height="100" as="geometry" />
        </mxCell>
        <mxCell id="RgH2JHaKkqkQcPpsvsZi-10" value="Database" style="image;html=1;image=img/lib/clip_art/computers/Database_128x128.png;fontSize=24;fontColor=default;labelBackgroundColor=default;" parent="1" vertex="1">
          <mxGeometry x="1050" y="690" width="80" height="100" as="geometry" />
        </mxCell>
        <mxCell id="RgH2JHaKkqkQcPpsvsZi-11" value="Exchange" style="sketch=0;pointerEvents=1;shadow=0;dashed=0;html=1;strokeColor=none;fillColor=#505050;labelPosition=center;verticalLabelPosition=bottom;verticalAlign=top;outlineConnect=0;align=center;shape=mxgraph.office.servers.exchange_server;fontSize=24;fontColor=default;labelBackgroundColor=default;" parent="1" vertex="1">
          <mxGeometry x="1210" y="690" width="100" height="100" as="geometry" />
        </mxCell>
        <mxCell id="RgH2JHaKkqkQcPpsvsZi-12" value="Internal&lt;br style=&quot;font-size: 24px;&quot;&gt;Domain Controller" style="sketch=0;aspect=fixed;pointerEvents=1;shadow=0;dashed=0;html=1;strokeColor=none;labelPosition=center;verticalLabelPosition=bottom;verticalAlign=top;align=center;fillColor=#00188D;shape=mxgraph.mscae.enterprise.domain_controller;fontSize=24;fontColor=default;labelBackgroundColor=default;" parent="1" vertex="1">
          <mxGeometry x="1410" y="690" width="72" height="100" as="geometry" />
        </mxCell>
        <mxCell id="6UI4XXb5e1x81RW5sbnT-3" style="edgeStyle=orthogonalEdgeStyle;rounded=0;orthogonalLoop=1;jettySize=auto;html=1;exitX=0;exitY=0.5;exitDx=0;exitDy=0;" parent="1" source="RgH2JHaKkqkQcPpsvsZi-15" target="Luh0oAcqzOAXoOjEFtq4-10" edge="1">
          <mxGeometry relative="1" as="geometry">
            <mxPoint x="780" y="270" as="targetPoint" />
            <Array as="points">
              <mxPoint x="1020" y="350" />
              <mxPoint x="1020" y="170" />
              <mxPoint x="540" y="170" />
              <mxPoint x="540" y="380" />
            </Array>
          </mxGeometry>
        </mxCell>
        <mxCell id="6UI4XXb5e1x81RW5sbnT-4" value="SFTP" style="edgeLabel;html=1;align=center;verticalAlign=middle;resizable=0;points=[];fontSize=18;" parent="6UI4XXb5e1x81RW5sbnT-3" vertex="1" connectable="0">
          <mxGeometry x="-0.0667" y="2" relative="1" as="geometry">
            <mxPoint x="-32" y="-32" as="offset" />
          </mxGeometry>
        </mxCell>
        <mxCell id="RgH2JHaKkqkQcPpsvsZi-15" value="192.168.21.33" style="image;html=1;image=img/lib/clip_art/computers/Laptop_128x128.png;fontSize=24;labelBackgroundColor=none;" parent="1" vertex="1">
          <mxGeometry x="1140" y="300" width="80" height="100" as="geometry" />
        </mxCell>
        <mxCell id="RgH2JHaKkqkQcPpsvsZi-18" value="" style="image;html=1;image=img/lib/clip_art/networking/Router_Icon_128x128.png;fontSize=24;labelBackgroundColor=none;" parent="1" vertex="1">
          <mxGeometry x="1210" y="530" width="80" height="80" as="geometry" />
        </mxCell>
        <mxCell id="WmShxaBknE1woGPF2N7F-3" value="Server Segment" style="dashed=0;html=1;shape=mxgraph.aws3.instance;fillColor=#F58536;gradientColor=none;dashed=0;fontSize=24;labelBackgroundColor=none;" parent="1" vertex="1">
          <mxGeometry x="1010" y="640" width="210" height="41" as="geometry" />
        </mxCell>
        <mxCell id="WmShxaBknE1woGPF2N7F-13" value="&lt;font style=&quot;font-size: 19px;&quot;&gt;192.168.21.0/24&lt;/font&gt;" style="dashed=0;html=1;shape=mxgraph.aws3.instance;fillColor=#F58536;gradientColor=none;dashed=0;fontSize=24;labelBackgroundColor=none;" parent="1" vertex="1">
          <mxGeometry x="1040" y="450" width="170" height="30" as="geometry" />
        </mxCell>
        <mxCell id="WmShxaBknE1woGPF2N7F-14" style="edgeStyle=orthogonalEdgeStyle;rounded=0;orthogonalLoop=1;jettySize=auto;html=1;exitX=0.95;exitY=0.95;exitDx=0;exitDy=0;exitPerimeter=0;entryX=0.963;entryY=0.732;entryDx=0;entryDy=0;entryPerimeter=0;labelBackgroundColor=none;" parent="1" source="WmShxaBknE1woGPF2N7F-13" target="WmShxaBknE1woGPF2N7F-13" edge="1">
          <mxGeometry relative="1" as="geometry" />
        </mxCell>
        <mxCell id="Wq85AIhZ5kJpVe08NVn--7" value="192.168.21.33" style="image;html=1;image=img/lib/clip_art/computers/Laptop_128x128.png;fontSize=24;labelBackgroundColor=none;" parent="1" vertex="1">
          <mxGeometry x="1339" y="1780" width="225" height="260" as="geometry" />
        </mxCell>
        <mxCell id="Wq85AIhZ5kJpVe08NVn--10" style="edgeStyle=orthogonalEdgeStyle;rounded=0;orthogonalLoop=1;jettySize=auto;html=1;entryX=0.5;entryY=0;entryDx=0;entryDy=0;fontSize=24;endArrow=none;endFill=0;startArrow=classic;startFill=1;strokeWidth=5;" parent="1" source="Wq85AIhZ5kJpVe08NVn--8" target="Wq85AIhZ5kJpVe08NVn--7" edge="1">
          <mxGeometry relative="1" as="geometry">
            <Array as="points">
              <mxPoint x="408" y="1710" />
              <mxPoint x="1452" y="1710" />
            </Array>
          </mxGeometry>
        </mxCell>
        <mxCell id="Wq85AIhZ5kJpVe08NVn--14" value="Website - Port 443" style="edgeLabel;html=1;align=center;verticalAlign=middle;resizable=0;points=[];fontSize=24;" parent="Wq85AIhZ5kJpVe08NVn--10" vertex="1" connectable="0">
          <mxGeometry x="0.4144" y="1" relative="1" as="geometry">
            <mxPoint x="-104" y="-19" as="offset" />
          </mxGeometry>
        </mxCell>
        <mxCell id="Wq85AIhZ5kJpVe08NVn--8" value="Server" style="image;html=1;image=img/lib/clip_art/computers/Server_128x128.png;fontSize=24;" parent="1" vertex="1">
          <mxGeometry x="248" y="1840" width="320" height="200" as="geometry" />
        </mxCell>
        <mxCell id="Wq85AIhZ5kJpVe08NVn--11" value="Web Server Software" style="verticalLabelPosition=bottom;html=1;verticalAlign=top;align=center;strokeColor=none;fillColor=#00BEF2;shape=mxgraph.azure.azure_website;pointerEvents=1;fontSize=24;" parent="1" vertex="1">
          <mxGeometry x="189" y="1640" width="165" height="160" as="geometry" />
        </mxCell>
        <mxCell id="Wq85AIhZ5kJpVe08NVn--15" value="Email Server Software" style="html=1;verticalLabelPosition=bottom;align=center;labelBackgroundColor=#ffffff;verticalAlign=top;strokeWidth=2;strokeColor=#0080F0;shadow=0;dashed=0;shape=mxgraph.ios7.icons.mail;aspect=fixed;fontSize=24;" parent="1" vertex="1">
          <mxGeometry x="608" y="1790" width="153" height="84.15" as="geometry" />
        </mxCell>
        <mxCell id="Wq85AIhZ5kJpVe08NVn--16" style="edgeStyle=orthogonalEdgeStyle;rounded=0;orthogonalLoop=1;jettySize=auto;html=1;entryX=0;entryY=0.5;entryDx=0;entryDy=0;fontSize=24;exitX=0.994;exitY=0.438;exitDx=0;exitDy=0;exitPerimeter=0;endArrow=none;endFill=0;startArrow=classic;startFill=1;strokeWidth=5;" parent="1" source="Wq85AIhZ5kJpVe08NVn--8" target="Wq85AIhZ5kJpVe08NVn--7" edge="1">
          <mxGeometry relative="1" as="geometry">
            <mxPoint x="429" y="2280" as="sourcePoint" />
            <mxPoint x="1473" y="2220" as="targetPoint" />
            <Array as="points">
              <mxPoint x="1339" y="1928" />
            </Array>
          </mxGeometry>
        </mxCell>
        <mxCell id="Wq85AIhZ5kJpVe08NVn--17" value="Send Email - Port 25" style="edgeLabel;html=1;align=center;verticalAlign=middle;resizable=0;points=[];fontSize=24;" parent="Wq85AIhZ5kJpVe08NVn--16" vertex="1" connectable="0">
          <mxGeometry x="0.4144" y="1" relative="1" as="geometry">
            <mxPoint x="-104" y="-19" as="offset" />
          </mxGeometry>
        </mxCell>
        <mxCell id="Wq85AIhZ5kJpVe08NVn--18" style="edgeStyle=orthogonalEdgeStyle;rounded=0;orthogonalLoop=1;jettySize=auto;html=1;entryX=0;entryY=1;entryDx=0;entryDy=0;fontSize=24;exitX=0.75;exitY=1;exitDx=0;exitDy=0;endArrow=none;endFill=0;startArrow=classic;startFill=1;strokeWidth=5;" parent="1" source="Wq85AIhZ5kJpVe08NVn--8" target="Wq85AIhZ5kJpVe08NVn--7" edge="1">
          <mxGeometry relative="1" as="geometry">
            <mxPoint x="558.92" y="2138" as="sourcePoint" />
            <mxPoint x="1331.92" y="2120" as="targetPoint" />
            <Array as="points">
              <mxPoint x="488" y="2210" />
              <mxPoint x="1339" y="2210" />
            </Array>
          </mxGeometry>
        </mxCell>
        <mxCell id="Wq85AIhZ5kJpVe08NVn--19" value="File Transfer - Port 21" style="edgeLabel;html=1;align=center;verticalAlign=middle;resizable=0;points=[];fontSize=24;" parent="Wq85AIhZ5kJpVe08NVn--18" vertex="1" connectable="0">
          <mxGeometry x="0.4144" y="1" relative="1" as="geometry">
            <mxPoint x="-104" y="-19" as="offset" />
          </mxGeometry>
        </mxCell>
        <mxCell id="Wq85AIhZ5kJpVe08NVn--20" value="File Server Software" style="image;html=1;image=img/lib/clip_art/general/Full_Folder_128x128.png;fontSize=24;" parent="1" vertex="1">
          <mxGeometry x="319" y="2103" width="150" height="130" as="geometry" />
        </mxCell>
        <mxCell id="Wq85AIhZ5kJpVe08NVn--21" value="Network Ports" style="text;strokeColor=none;fillColor=none;html=1;fontSize=24;fontStyle=1;verticalAlign=middle;align=center;fontColor=default;labelBackgroundColor=none;" parent="1" vertex="1">
          <mxGeometry x="423" y="1590" width="861" height="40" as="geometry" />
        </mxCell>
        <mxCell id="Luh0oAcqzOAXoOjEFtq4-10" value="Attacker&lt;br&gt;File Server&lt;br&gt;(SFTP)" style="image;html=1;image=img/lib/clip_art/computers/Server_Rack_Empty_128x128.png;fontSize=24;fontColor=default;labelBackgroundColor=default;" vertex="1" parent="1">
          <mxGeometry x="-139.5" y="380" width="140" height="100" as="geometry" />
        </mxCell>
        <mxCell id="Luh0oAcqzOAXoOjEFtq4-21" value="" style="shape=image;html=1;verticalAlign=top;verticalLabelPosition=bottom;labelBackgroundColor=#ffffff;imageAspect=0;aspect=fixed;image=https://cdn2.iconfinder.com/data/icons/woothemes/PNG/intruder.png" vertex="1" parent="1">
          <mxGeometry x="1203" y="286" width="84" height="84" as="geometry" />
        </mxCell>
        <mxCell id="Luh0oAcqzOAXoOjEFtq4-22" value="&lt;font style=&quot;font-size: 24px;&quot;&gt;Sensitive File&lt;/font&gt;" style="image;html=1;image=img/lib/clip_art/general/Full_Folder_128x128.png" vertex="1" parent="1">
          <mxGeometry x="1310" y="300" width="80" height="80" as="geometry" />
        </mxCell>
      </root>
    </mxGraphModel>
  </diagram>
</mxfile>
